<svg width="280" height="24" viewBox="0 0 280 24" fill="none" xmlns="http://www.w3.org/2000/svg">
<path fill-rule="evenodd" clip-rule="evenodd" d="M2 7C2 4.23858 4.23858 2 7 2H17C19.7614 2 22 4.23858 22 7V17C22 19.7614 19.7614 22 17 22H7C4.23858 22 2 19.7614 2 17V7ZM7 4C5.34315 4 4 5.34315 4 7V17C4 18.6569 5.34315 20 7 20H17C18.6569 20 20 18.6569 20 17V7C20 5.34315 18.6569 4 17 4H7Z" fill="white"/>
<path fill-rule="evenodd" clip-rule="evenodd" d="M12 7C12.5523 7 13 7.44772 13 8V11H16C16.5523 11 17 11.4477 17 12C17 12.5523 16.5523 13 16 13H13L13 16C13 16.5523 12.5523 17 12 17C11.4477 17 11 16.5523 11 16L11 13H8C7.44772 13 7 12.5523 7 12C7 11.4477 7.44772 11 8 11H11V8C11 7.44772 11.4477 7 12 7Z" fill="white"/>
<path d="M104.888 8.37305L101.914 17H100.116L103.862 7.04688H105.011L104.888 8.37305ZM107.376 17L104.396 8.37305L104.266 7.04688H105.421L109.181 17H107.376ZM107.232 13.3086V14.6689H101.818V13.3086H107.232ZM111.662 11.0254V19.8438H110.015V9.60352H111.532L111.662 11.0254ZM116.481 13.2334V13.377C116.481 13.9147 116.418 14.4137 116.29 14.874C116.167 15.3298 115.982 15.7285 115.736 16.0703C115.495 16.4076 115.196 16.6696 114.841 16.8564C114.485 17.0433 114.075 17.1367 113.61 17.1367C113.15 17.1367 112.747 17.0524 112.4 16.8838C112.059 16.7106 111.769 16.4668 111.532 16.1523C111.295 15.8379 111.104 15.4688 110.958 15.0449C110.817 14.6165 110.716 14.1471 110.657 13.6367V13.083C110.716 12.5407 110.817 12.0485 110.958 11.6064C111.104 11.1644 111.295 10.7839 111.532 10.4648C111.769 10.1458 112.059 9.89974 112.4 9.72656C112.742 9.55339 113.141 9.4668 113.597 9.4668C114.062 9.4668 114.474 9.55794 114.834 9.74023C115.194 9.91797 115.497 10.1732 115.743 10.5059C115.989 10.834 116.174 11.2305 116.297 11.6953C116.42 12.1556 116.481 12.6683 116.481 13.2334ZM114.834 13.377V13.2334C114.834 12.8916 114.802 12.5749 114.738 12.2832C114.674 11.987 114.574 11.7272 114.438 11.5039C114.301 11.2806 114.125 11.1074 113.911 10.9844C113.701 10.8568 113.449 10.793 113.152 10.793C112.861 10.793 112.61 10.8431 112.4 10.9434C112.191 11.0391 112.015 11.1735 111.874 11.3467C111.733 11.5199 111.623 11.7227 111.546 11.9551C111.468 12.1829 111.414 12.4313 111.382 12.7002V14.0264C111.437 14.3545 111.53 14.6553 111.662 14.9287C111.794 15.2021 111.981 15.4209 112.223 15.585C112.469 15.7445 112.783 15.8242 113.166 15.8242C113.462 15.8242 113.715 15.7604 113.925 15.6328C114.134 15.5052 114.305 15.3298 114.438 15.1064C114.574 14.8786 114.674 14.6165 114.738 14.3203C114.802 14.0241 114.834 13.7096 114.834 13.377ZM121.144 17.1367C120.597 17.1367 120.102 17.0479 119.66 16.8701C119.223 16.6878 118.849 16.4349 118.539 16.1113C118.234 15.7878 117.999 15.4072 117.835 14.9697C117.671 14.5322 117.589 14.0605 117.589 13.5547V13.2812C117.589 12.7025 117.673 12.1784 117.842 11.709C118.01 11.2396 118.245 10.8385 118.546 10.5059C118.847 10.1686 119.202 9.91113 119.612 9.7334C120.022 9.55566 120.467 9.4668 120.945 9.4668C121.474 9.4668 121.937 9.55566 122.333 9.7334C122.729 9.91113 123.058 10.1618 123.317 10.4854C123.582 10.8044 123.778 11.1849 123.905 11.627C124.037 12.069 124.104 12.5566 124.104 13.0898V13.7939H118.389V12.6113H122.477V12.4814C122.467 12.1852 122.408 11.9072 122.299 11.6475C122.194 11.3877 122.032 11.1781 121.813 11.0186C121.595 10.859 121.303 10.7793 120.938 10.7793C120.665 10.7793 120.421 10.8385 120.207 10.957C119.997 11.071 119.822 11.2373 119.681 11.4561C119.539 11.6748 119.43 11.9391 119.353 12.249C119.28 12.5544 119.243 12.8984 119.243 13.2812V13.5547C119.243 13.8783 119.286 14.179 119.373 14.457C119.464 14.7305 119.596 14.9697 119.77 15.1748C119.943 15.3799 120.152 15.5417 120.398 15.6602C120.645 15.7741 120.925 15.8311 121.239 15.8311C121.636 15.8311 121.989 15.7513 122.299 15.5918C122.609 15.4323 122.878 15.2067 123.105 14.915L123.974 15.7559C123.814 15.9883 123.607 16.2116 123.352 16.4258C123.096 16.6354 122.784 16.8063 122.415 16.9385C122.05 17.0706 121.627 17.1367 121.144 17.1367ZM130.44 12.6934V13.9922H126.612V12.6934H130.44ZM127.091 9.60352V17H125.443V9.60352H127.091ZM131.63 9.60352V17H129.982V9.60352H131.63ZM134.727 9.60352H136.374L136.292 12.208C136.269 12.9645 136.183 13.6139 136.032 14.1562C135.882 14.6986 135.686 15.1566 135.444 15.5303C135.203 15.8994 134.929 16.2025 134.624 16.4395C134.323 16.6764 134.007 16.8633 133.674 17H133.188V15.7012L133.421 15.6875C133.617 15.4779 133.785 15.2682 133.927 15.0586C134.073 14.8444 134.196 14.6097 134.296 14.3545C134.396 14.0947 134.474 13.7917 134.528 13.4453C134.588 13.099 134.626 12.6865 134.645 12.208L134.727 9.60352ZM135.164 9.60352H139.854V17H138.213V10.998H135.164V9.60352ZM132.812 15.6875H140.865V19.2012H139.218V17H134.48V19.2012H132.806L132.812 15.6875ZM141.727 13.3838V13.2266C141.727 12.6934 141.804 12.1989 141.959 11.7432C142.114 11.2829 142.337 10.8841 142.629 10.5469C142.925 10.2051 143.285 9.94076 143.709 9.75391C144.137 9.5625 144.62 9.4668 145.158 9.4668C145.701 9.4668 146.184 9.5625 146.607 9.75391C147.036 9.94076 147.398 10.2051 147.694 10.5469C147.991 10.8841 148.216 11.2829 148.371 11.7432C148.526 12.1989 148.604 12.6934 148.604 13.2266V13.3838C148.604 13.917 148.526 14.4115 148.371 14.8672C148.216 15.3229 147.991 15.7217 147.694 16.0635C147.398 16.4007 147.038 16.665 146.614 16.8564C146.19 17.0433 145.71 17.1367 145.172 17.1367C144.63 17.1367 144.144 17.0433 143.716 16.8564C143.292 16.665 142.932 16.4007 142.636 16.0635C142.34 15.7217 142.114 15.3229 141.959 14.8672C141.804 14.4115 141.727 13.917 141.727 13.3838ZM143.374 13.2266V13.3838C143.374 13.7165 143.408 14.0309 143.477 14.3271C143.545 14.6234 143.652 14.8831 143.798 15.1064C143.944 15.3298 144.131 15.5052 144.358 15.6328C144.586 15.7604 144.857 15.8242 145.172 15.8242C145.477 15.8242 145.742 15.7604 145.965 15.6328C146.193 15.5052 146.38 15.3298 146.525 15.1064C146.671 14.8831 146.778 14.6234 146.847 14.3271C146.92 14.0309 146.956 13.7165 146.956 13.3838V13.2266C146.956 12.8984 146.92 12.5885 146.847 12.2969C146.778 12.0007 146.669 11.7386 146.519 11.5107C146.373 11.2829 146.186 11.1051 145.958 10.9775C145.735 10.8454 145.468 10.7793 145.158 10.7793C144.848 10.7793 144.579 10.8454 144.352 10.9775C144.128 11.1051 143.944 11.2829 143.798 11.5107C143.652 11.7386 143.545 12.0007 143.477 12.2969C143.408 12.5885 143.374 12.8984 143.374 13.2266ZM153.58 13.835H151.215L151.201 12.6729H153.143C153.462 12.6729 153.724 12.641 153.929 12.5771C154.138 12.5133 154.293 12.4176 154.394 12.29C154.494 12.1579 154.544 11.9984 154.544 11.8115C154.544 11.6566 154.514 11.5221 154.455 11.4082C154.396 11.2897 154.305 11.194 154.182 11.1211C154.063 11.0436 153.913 10.9889 153.73 10.957C153.553 10.9206 153.345 10.9023 153.108 10.9023H151.762V17H150.114V9.60352H153.108C153.582 9.60352 154.008 9.64453 154.387 9.72656C154.77 9.80859 155.095 9.93392 155.364 10.1025C155.633 10.2712 155.838 10.4854 155.979 10.7451C156.125 11.0003 156.198 11.3011 156.198 11.6475C156.198 11.8753 156.148 12.0895 156.048 12.29C155.952 12.4906 155.809 12.6683 155.617 12.8232C155.426 12.9782 155.191 13.1058 154.913 13.2061C154.635 13.3018 154.316 13.361 153.956 13.3838L153.58 13.835ZM153.58 17H150.736L151.393 15.7012H153.58C153.872 15.7012 154.113 15.6647 154.305 15.5918C154.496 15.5189 154.637 15.4141 154.729 15.2773C154.824 15.1361 154.872 14.9697 154.872 14.7783C154.872 14.5824 154.826 14.4137 154.735 14.2725C154.644 14.1312 154.503 14.0241 154.312 13.9512C154.125 13.8737 153.881 13.835 153.58 13.835H151.7L151.714 12.6729H153.949L154.421 13.124C154.89 13.1559 155.28 13.2562 155.59 13.4248C155.9 13.5934 156.132 13.8053 156.287 14.0605C156.442 14.3158 156.52 14.5938 156.52 14.8945C156.52 15.2409 156.453 15.5462 156.321 15.8105C156.194 16.0749 156.002 16.2959 155.747 16.4736C155.496 16.6468 155.189 16.779 154.824 16.8701C154.46 16.9567 154.045 17 153.58 17ZM162.111 15.5166V11.9893C162.111 11.7249 162.063 11.4971 161.968 11.3057C161.872 11.1143 161.726 10.9661 161.53 10.8613C161.339 10.7565 161.097 10.7041 160.806 10.7041C160.537 10.7041 160.304 10.7497 160.108 10.8408C159.912 10.932 159.76 11.055 159.65 11.21C159.541 11.3649 159.486 11.5404 159.486 11.7363H157.846C157.846 11.4447 157.916 11.1621 158.058 10.8887C158.199 10.6152 158.404 10.3714 158.673 10.1572C158.942 9.94303 159.263 9.77441 159.637 9.65137C160.01 9.52832 160.43 9.4668 160.895 9.4668C161.451 9.4668 161.943 9.56022 162.371 9.74707C162.804 9.93392 163.144 10.2165 163.39 10.5947C163.64 10.9684 163.766 11.4378 163.766 12.0029V15.291C163.766 15.6283 163.788 15.9313 163.834 16.2002C163.884 16.4645 163.955 16.6947 164.046 16.8906V17H162.357C162.28 16.8223 162.218 16.5967 162.173 16.3232C162.132 16.0452 162.111 15.7764 162.111 15.5166ZM162.351 12.502L162.364 13.5205H161.182C160.876 13.5205 160.607 13.5501 160.375 13.6094C160.143 13.6641 159.949 13.7461 159.794 13.8555C159.639 13.9648 159.523 14.097 159.445 14.252C159.368 14.4069 159.329 14.5824 159.329 14.7783C159.329 14.9743 159.375 15.1543 159.466 15.3184C159.557 15.4779 159.689 15.6032 159.862 15.6943C160.04 15.7855 160.254 15.8311 160.505 15.8311C160.842 15.8311 161.136 15.7627 161.387 15.626C161.642 15.4847 161.842 15.3138 161.988 15.1133C162.134 14.9082 162.212 14.7145 162.221 14.5322L162.754 15.2637C162.699 15.4505 162.606 15.651 162.474 15.8652C162.341 16.0794 162.168 16.2845 161.954 16.4805C161.744 16.6719 161.492 16.8291 161.195 16.9521C160.904 17.0752 160.566 17.1367 160.184 17.1367C159.701 17.1367 159.27 17.041 158.892 16.8496C158.513 16.6536 158.217 16.3916 158.003 16.0635C157.789 15.7308 157.682 15.3548 157.682 14.9355C157.682 14.5436 157.755 14.1973 157.9 13.8965C158.051 13.5911 158.27 13.3359 158.557 13.1309C158.848 12.9258 159.204 12.7708 159.623 12.666C160.042 12.5566 160.521 12.502 161.059 12.502H162.351ZM168.811 9.60352V17H167.156V9.60352H168.811ZM171.237 9.60352V10.9023H164.771V9.60352H171.237ZM173.562 11.9551H175.742C176.38 11.9551 176.923 12.0622 177.369 12.2764C177.816 12.4906 178.155 12.7891 178.388 13.1719C178.625 13.5501 178.743 13.9831 178.743 14.4707C178.743 14.8307 178.677 15.1657 178.545 15.4756C178.413 15.7809 178.217 16.0475 177.957 16.2754C177.702 16.5033 177.387 16.681 177.014 16.8086C176.645 16.9362 176.221 17 175.742 17H172.468V9.60352H174.122V15.6943H175.742C176.07 15.6943 176.332 15.6374 176.528 15.5234C176.724 15.4095 176.866 15.2614 176.952 15.0791C177.043 14.8968 177.089 14.7031 177.089 14.498C177.089 14.2884 177.043 14.0902 176.952 13.9033C176.866 13.7165 176.724 13.5638 176.528 13.4453C176.332 13.3268 176.07 13.2676 175.742 13.2676H173.562V11.9551Z" fill="white"/>
</svg>
