<svg width="24" height="24" viewBox="0 0 24 24" fill="none" xmlns="http://www.w3.org/2000/svg">
<path fill-rule="evenodd" clip-rule="evenodd" d="M8 3C8 2.44772 8.44772 2 9 2H9.01C9.56228 2 10.01 2.44772 10.01 3C10.01 3.55228 9.56228 4 9.01 4H9C8.44772 4 8 3.55228 8 3ZM11 3C11 2.44772 11.4477 2 12 2H12.01C12.5623 2 13.01 2.44772 13.01 3C13.01 3.55228 12.5623 4 12.01 4H12C11.4477 4 11 3.55228 11 3ZM14 3C14 2.44772 14.4477 2 15 2H15.01C15.5623 2 16.01 2.44772 16.01 3C16.01 3.55228 15.5623 4 15.01 4H15C14.4477 4 14 3.55228 14 3ZM9 5C9.55228 5 10 5.44772 10 6V7H11V6C11 5.44772 11.4477 5 12 5C12.5523 5 13 5.44772 13 6V7H14V6C14 5.44772 14.4477 5 15 5C15.5523 5 16 5.44772 16 6V7C16.7957 7 17.5587 7.31607 18.1213 7.87868C18.6839 8.44129 19 9.20435 19 10V11C19.7957 11 20.5587 11.3161 21.1213 11.8787C21.6839 12.4413 22 13.2043 22 14V21C22 21.5523 21.5523 22 21 22H3C2.44772 22 2 21.5523 2 21V14C2 13.2044 2.31607 12.4413 2.87868 11.8787C3.44129 11.3161 4.20435 11 5 11V10C5 9.20435 5.31607 8.44129 5.87868 7.87868C6.44129 7.31607 7.20435 7 8 7V6C8 5.44772 8.44772 5 9 5ZM8 9C7.73478 9 7.48043 9.10536 7.29289 9.29289C7.10536 9.48043 7 9.73478 7 10V11H17V10C17 9.73478 16.8946 9.48043 16.7071 9.29289C16.5196 9.10536 16.2652 9 16 9H8ZM5 13C4.73478 13 4.48043 13.1054 4.29289 13.2929C4.10536 13.4804 4 13.7348 4 14V14.6833C4.37288 14.7878 4.72908 14.9508 5.05473 15.168C5.33466 15.3546 5.66356 15.4542 6 15.4542C6.33644 15.4542 6.66534 15.3546 6.94527 15.168C7.55374 14.7623 8.26869 14.5458 9 14.5458C9.73131 14.5458 10.4463 14.7623 11.0547 15.168C11.3347 15.3546 11.6636 15.4542 12 15.4542C12.3364 15.4542 12.6653 15.3546 12.9453 15.168C13.5537 14.7623 14.2687 14.5458 15 14.5458C15.7313 14.5458 16.4463 14.7623 17.0547 15.168C17.3347 15.3546 17.6636 15.4542 18 15.4542C18.3364 15.4542 18.6653 15.3546 18.9453 15.168C19.2751 14.9479 19.6314 14.7864 20 14.6832V14C20 13.7348 19.8946 13.4804 19.7071 13.2929C19.5196 13.1054 19.2652 13 19 13H5ZM20 16.8678C19.4036 17.2504 18.7095 17.4542 18 17.4542C17.2687 17.4542 16.5537 17.2377 15.9453 16.832C15.6653 16.6454 15.3364 16.5458 15 16.5458C14.6636 16.5458 14.3347 16.6454 14.0547 16.832C13.4463 17.2377 12.7313 17.4542 12 17.4542C11.2687 17.4542 10.5537 17.2377 9.94527 16.832C9.66534 16.6454 9.33644 16.5458 9 16.5458C8.66356 16.5458 8.33466 16.6454 8.05473 16.832C7.44626 17.2377 6.73131 17.4542 6 17.4542C5.2905 17.4542 4.59641 17.2504 4 16.8678V20H20V16.8678Z" fill="#1AA4FF"/>
</svg>
