<svg width="24" height="24" viewBox="0 0 24 24" fill="none" xmlns="http://www.w3.org/2000/svg">
<path d="M11.9999 3C11.5399 3 11.0699 3.04 10.5999 3.14C7.83995 3.67 5.63995 5.9 5.11995 8.66C4.63995 11.27 5.59995 13.67 7.33995 15.22C7.76995 15.6 7.99995 16.13 7.99995 16.69V19C7.99995 20.1 8.89995 21 9.99995 21H10.2799C10.453 21.3035 10.7033 21.5558 11.0054 21.7313C11.3075 21.9067 11.6506 21.9992 11.9999 21.9992C12.3493 21.9992 12.6924 21.9067 12.9945 21.7313C13.2966 21.5558 13.5469 21.3035 13.7199 21H13.9999C15.0999 21 15.9999 20.1 15.9999 19V16.69C15.9999 16.14 16.2199 15.6 16.6399 15.23C17.3827 14.5762 17.9774 13.7716 18.3843 12.8697C18.7913 11.9678 19.0012 10.9895 18.9999 10C18.9999 6.13 15.8699 3 11.9999 3ZM13.9999 17H9.99995V16H13.9999V17ZM9.99995 19V18H13.9999V19H9.99995ZM15.3099 13.74C15.2199 13.82 15.1499 13.92 15.0699 14H8.91995C8.83995 13.91 8.76995 13.81 8.67995 13.73C7.35995 12.55 6.76995 10.79 7.08995 9.03C7.44995 7.09 9.04995 5.48 10.9799 5.1C11.3199 5.03 11.6599 5 11.9999 5C14.7599 5 16.9999 7.24 16.9999 10C16.9999 11.43 16.3899 12.79 15.3099 13.74V13.74Z" fill="#1AA4FF"/>
<path d="M11.5 11H12.5V14H11.5V11Z" fill="#1AA4FF"/>
<path d="M9.672 9.57999L10.379 8.87399L12.501 10.995L11.794 11.702L9.672 9.57999Z" fill="#1AA4FF"/>
<path d="M12.208 11.712L11.501 11.005L13.622 8.884L14.329 9.591L12.208 11.712Z" fill="#1AA4FF"/>
</svg>
