<svg width="141" height="24" viewBox="0 0 141 24" fill="none" xmlns="http://www.w3.org/2000/svg">
<path fill-rule="evenodd" clip-rule="evenodd" d="M2 7C2 4.23858 4.23858 2 7 2H17C19.7614 2 22 4.23858 22 7V17C22 19.7614 19.7614 22 17 22H7C4.23858 22 2 19.7614 2 17V7ZM7 4C5.34315 4 4 5.34315 4 7V17C4 18.6569 5.34315 20 7 20H17C18.6569 20 20 18.6569 20 17V7C20 5.34315 18.6569 4 17 4H7Z" fill="white"/>
<path fill-rule="evenodd" clip-rule="evenodd" d="M12 7C12.5523 7 13 7.44772 13 8V11H16C16.5523 11 17 11.4477 17 12C17 12.5523 16.5523 13 16 13H13L13 16C13 16.5523 12.5523 17 12 17C11.4477 17 11 16.5523 11 16L11 13H8C7.44772 13 7 12.5523 7 12C7 11.4477 7.44772 11 8 11H11V8C11 7.44772 11.4477 7 12 7Z" fill="white"/>
<path d="M65.8877 8.37305L62.9141 17H61.1162L64.8623 7.04688H66.0107L65.8877 8.37305ZM68.376 17L65.3955 8.37305L65.2656 7.04688H66.4209L70.1807 17H68.376ZM68.2324 13.3086V14.6689H62.8184V13.3086H68.2324ZM72.6621 11.0254V19.8438H71.0146V9.60352H72.5322L72.6621 11.0254ZM77.4814 13.2334V13.377C77.4814 13.9147 77.4176 14.4137 77.29 14.874C77.167 15.3298 76.9824 15.7285 76.7363 16.0703C76.4948 16.4076 76.1963 16.6696 75.8408 16.8564C75.4854 17.0433 75.0752 17.1367 74.6104 17.1367C74.1501 17.1367 73.7467 17.0524 73.4004 16.8838C73.0586 16.7106 72.7692 16.4668 72.5322 16.1523C72.2952 15.8379 72.1038 15.4688 71.958 15.0449C71.8167 14.6165 71.7165 14.1471 71.6572 13.6367V13.083C71.7165 12.5407 71.8167 12.0485 71.958 11.6064C72.1038 11.1644 72.2952 10.7839 72.5322 10.4648C72.7692 10.1458 73.0586 9.89974 73.4004 9.72656C73.7422 9.55339 74.141 9.4668 74.5967 9.4668C75.0615 9.4668 75.474 9.55794 75.834 9.74023C76.194 9.91797 76.4971 10.1732 76.7432 10.5059C76.9893 10.834 77.1738 11.2305 77.2969 11.6953C77.4199 12.1556 77.4814 12.6683 77.4814 13.2334ZM75.834 13.377V13.2334C75.834 12.8916 75.8021 12.5749 75.7383 12.2832C75.6745 11.987 75.5742 11.7272 75.4375 11.5039C75.3008 11.2806 75.1253 11.1074 74.9111 10.9844C74.7015 10.8568 74.4486 10.793 74.1523 10.793C73.8607 10.793 73.61 10.8431 73.4004 10.9434C73.1908 11.0391 73.0153 11.1735 72.874 11.3467C72.7327 11.5199 72.6234 11.7227 72.5459 11.9551C72.4684 12.1829 72.4137 12.4313 72.3818 12.7002V14.0264C72.4365 14.3545 72.5299 14.6553 72.6621 14.9287C72.7943 15.2021 72.9811 15.4209 73.2227 15.585C73.4688 15.7445 73.7832 15.8242 74.166 15.8242C74.4622 15.8242 74.7152 15.7604 74.9248 15.6328C75.1344 15.5052 75.3053 15.3298 75.4375 15.1064C75.5742 14.8786 75.6745 14.6165 75.7383 14.3203C75.8021 14.0241 75.834 13.7096 75.834 13.377ZM82.1436 17.1367C81.5967 17.1367 81.1022 17.0479 80.6602 16.8701C80.2227 16.6878 79.849 16.4349 79.5391 16.1113C79.2337 15.7878 78.999 15.4072 78.835 14.9697C78.6709 14.5322 78.5889 14.0605 78.5889 13.5547V13.2812C78.5889 12.7025 78.6732 12.1784 78.8418 11.709C79.0104 11.2396 79.2451 10.8385 79.5459 10.5059C79.8467 10.1686 80.2021 9.91113 80.6123 9.7334C81.0225 9.55566 81.4668 9.4668 81.9453 9.4668C82.474 9.4668 82.9365 9.55566 83.333 9.7334C83.7295 9.91113 84.0576 10.1618 84.3174 10.4854C84.5817 10.8044 84.7777 11.1849 84.9053 11.627C85.0374 12.069 85.1035 12.5566 85.1035 13.0898V13.7939H79.3887V12.6113H83.4766V12.4814C83.4674 12.1852 83.4082 11.9072 83.2988 11.6475C83.194 11.3877 83.0322 11.1781 82.8135 11.0186C82.5947 10.859 82.3031 10.7793 81.9385 10.7793C81.665 10.7793 81.4212 10.8385 81.207 10.957C80.9974 11.071 80.8219 11.2373 80.6807 11.4561C80.5394 11.6748 80.43 11.9391 80.3525 12.249C80.2796 12.5544 80.2432 12.8984 80.2432 13.2812V13.5547C80.2432 13.8783 80.2865 14.179 80.373 14.457C80.4642 14.7305 80.5964 14.9697 80.7695 15.1748C80.9427 15.3799 81.1523 15.5417 81.3984 15.6602C81.6445 15.7741 81.9248 15.8311 82.2393 15.8311C82.6357 15.8311 82.9889 15.7513 83.2988 15.5918C83.6087 15.4323 83.8776 15.2067 84.1055 14.915L84.9736 15.7559C84.8141 15.9883 84.6068 16.2116 84.3516 16.4258C84.0964 16.6354 83.7842 16.8063 83.415 16.9385C83.0505 17.0706 82.6266 17.1367 82.1436 17.1367ZM91.4404 12.6934V13.9922H87.6123V12.6934H91.4404ZM88.0908 9.60352V17H86.4434V9.60352H88.0908ZM92.6299 9.60352V17H90.9824V9.60352H92.6299ZM95.7266 9.60352H97.374L97.292 12.208C97.2692 12.9645 97.1826 13.6139 97.0322 14.1562C96.8818 14.6986 96.6859 15.1566 96.4443 15.5303C96.2028 15.8994 95.9294 16.2025 95.624 16.4395C95.3232 16.6764 95.0065 16.8633 94.6738 17H94.1885V15.7012L94.4209 15.6875C94.6169 15.4779 94.7855 15.2682 94.9268 15.0586C95.0726 14.8444 95.1956 14.6097 95.2959 14.3545C95.3962 14.0947 95.4736 13.7917 95.5283 13.4453C95.5876 13.099 95.6263 12.6865 95.6445 12.208L95.7266 9.60352ZM96.1641 9.60352H100.854V17H99.2129V10.998H96.1641V9.60352ZM93.8125 15.6875H101.865V19.2012H100.218V17H95.4805V19.2012H93.8057L93.8125 15.6875ZM102.727 13.3838V13.2266C102.727 12.6934 102.804 12.1989 102.959 11.7432C103.114 11.2829 103.337 10.8841 103.629 10.5469C103.925 10.2051 104.285 9.94076 104.709 9.75391C105.137 9.5625 105.62 9.4668 106.158 9.4668C106.701 9.4668 107.184 9.5625 107.607 9.75391C108.036 9.94076 108.398 10.2051 108.694 10.5469C108.991 10.8841 109.216 11.2829 109.371 11.7432C109.526 12.1989 109.604 12.6934 109.604 13.2266V13.3838C109.604 13.917 109.526 14.4115 109.371 14.8672C109.216 15.3229 108.991 15.7217 108.694 16.0635C108.398 16.4007 108.038 16.665 107.614 16.8564C107.19 17.0433 106.71 17.1367 106.172 17.1367C105.63 17.1367 105.144 17.0433 104.716 16.8564C104.292 16.665 103.932 16.4007 103.636 16.0635C103.34 15.7217 103.114 15.3229 102.959 14.8672C102.804 14.4115 102.727 13.917 102.727 13.3838ZM104.374 13.2266V13.3838C104.374 13.7165 104.408 14.0309 104.477 14.3271C104.545 14.6234 104.652 14.8831 104.798 15.1064C104.944 15.3298 105.131 15.5052 105.358 15.6328C105.586 15.7604 105.857 15.8242 106.172 15.8242C106.477 15.8242 106.742 15.7604 106.965 15.6328C107.193 15.5052 107.38 15.3298 107.525 15.1064C107.671 14.8831 107.778 14.6234 107.847 14.3271C107.92 14.0309 107.956 13.7165 107.956 13.3838V13.2266C107.956 12.8984 107.92 12.5885 107.847 12.2969C107.778 12.0007 107.669 11.7386 107.519 11.5107C107.373 11.2829 107.186 11.1051 106.958 10.9775C106.735 10.8454 106.468 10.7793 106.158 10.7793C105.848 10.7793 105.579 10.8454 105.352 10.9775C105.128 11.1051 104.944 11.2829 104.798 11.5107C104.652 11.7386 104.545 12.0007 104.477 12.2969C104.408 12.5885 104.374 12.8984 104.374 13.2266ZM114.58 13.835H112.215L112.201 12.6729H114.143C114.462 12.6729 114.724 12.641 114.929 12.5771C115.138 12.5133 115.293 12.4176 115.394 12.29C115.494 12.1579 115.544 11.9984 115.544 11.8115C115.544 11.6566 115.514 11.5221 115.455 11.4082C115.396 11.2897 115.305 11.194 115.182 11.1211C115.063 11.0436 114.913 10.9889 114.73 10.957C114.553 10.9206 114.345 10.9023 114.108 10.9023H112.762V17H111.114V9.60352H114.108C114.582 9.60352 115.008 9.64453 115.387 9.72656C115.77 9.80859 116.095 9.93392 116.364 10.1025C116.633 10.2712 116.838 10.4854 116.979 10.7451C117.125 11.0003 117.198 11.3011 117.198 11.6475C117.198 11.8753 117.148 12.0895 117.048 12.29C116.952 12.4906 116.809 12.6683 116.617 12.8232C116.426 12.9782 116.191 13.1058 115.913 13.2061C115.635 13.3018 115.316 13.361 114.956 13.3838L114.58 13.835ZM114.58 17H111.736L112.393 15.7012H114.58C114.872 15.7012 115.113 15.6647 115.305 15.5918C115.496 15.5189 115.637 15.4141 115.729 15.2773C115.824 15.1361 115.872 14.9697 115.872 14.7783C115.872 14.5824 115.826 14.4137 115.735 14.2725C115.644 14.1312 115.503 14.0241 115.312 13.9512C115.125 13.8737 114.881 13.835 114.58 13.835H112.7L112.714 12.6729H114.949L115.421 13.124C115.89 13.1559 116.28 13.2562 116.59 13.4248C116.9 13.5934 117.132 13.8053 117.287 14.0605C117.442 14.3158 117.52 14.5938 117.52 14.8945C117.52 15.2409 117.453 15.5462 117.321 15.8105C117.194 16.0749 117.002 16.2959 116.747 16.4736C116.496 16.6468 116.189 16.779 115.824 16.8701C115.46 16.9567 115.045 17 114.58 17ZM123.111 15.5166V11.9893C123.111 11.7249 123.063 11.4971 122.968 11.3057C122.872 11.1143 122.726 10.9661 122.53 10.8613C122.339 10.7565 122.097 10.7041 121.806 10.7041C121.537 10.7041 121.304 10.7497 121.108 10.8408C120.912 10.932 120.76 11.055 120.65 11.21C120.541 11.3649 120.486 11.5404 120.486 11.7363H118.846C118.846 11.4447 118.916 11.1621 119.058 10.8887C119.199 10.6152 119.404 10.3714 119.673 10.1572C119.942 9.94303 120.263 9.77441 120.637 9.65137C121.01 9.52832 121.43 9.4668 121.895 9.4668C122.451 9.4668 122.943 9.56022 123.371 9.74707C123.804 9.93392 124.144 10.2165 124.39 10.5947C124.64 10.9684 124.766 11.4378 124.766 12.0029V15.291C124.766 15.6283 124.788 15.9313 124.834 16.2002C124.884 16.4645 124.955 16.6947 125.046 16.8906V17H123.357C123.28 16.8223 123.218 16.5967 123.173 16.3232C123.132 16.0452 123.111 15.7764 123.111 15.5166ZM123.351 12.502L123.364 13.5205H122.182C121.876 13.5205 121.607 13.5501 121.375 13.6094C121.143 13.6641 120.949 13.7461 120.794 13.8555C120.639 13.9648 120.523 14.097 120.445 14.252C120.368 14.4069 120.329 14.5824 120.329 14.7783C120.329 14.9743 120.375 15.1543 120.466 15.3184C120.557 15.4779 120.689 15.6032 120.862 15.6943C121.04 15.7855 121.254 15.8311 121.505 15.8311C121.842 15.8311 122.136 15.7627 122.387 15.626C122.642 15.4847 122.842 15.3138 122.988 15.1133C123.134 14.9082 123.212 14.7145 123.221 14.5322L123.754 15.2637C123.699 15.4505 123.606 15.651 123.474 15.8652C123.341 16.0794 123.168 16.2845 122.954 16.4805C122.744 16.6719 122.492 16.8291 122.195 16.9521C121.904 17.0752 121.566 17.1367 121.184 17.1367C120.701 17.1367 120.27 17.041 119.892 16.8496C119.513 16.6536 119.217 16.3916 119.003 16.0635C118.789 15.7308 118.682 15.3548 118.682 14.9355C118.682 14.5436 118.755 14.1973 118.9 13.8965C119.051 13.5911 119.27 13.3359 119.557 13.1309C119.848 12.9258 120.204 12.7708 120.623 12.666C121.042 12.5566 121.521 12.502 122.059 12.502H123.351ZM129.811 9.60352V17H128.156V9.60352H129.811ZM132.237 9.60352V10.9023H125.771V9.60352H132.237ZM134.562 11.9551H136.742C137.38 11.9551 137.923 12.0622 138.369 12.2764C138.816 12.4906 139.155 12.7891 139.388 13.1719C139.625 13.5501 139.743 13.9831 139.743 14.4707C139.743 14.8307 139.677 15.1657 139.545 15.4756C139.413 15.7809 139.217 16.0475 138.957 16.2754C138.702 16.5033 138.387 16.681 138.014 16.8086C137.645 16.9362 137.221 17 136.742 17H133.468V9.60352H135.122V15.6943H136.742C137.07 15.6943 137.332 15.6374 137.528 15.5234C137.724 15.4095 137.866 15.2614 137.952 15.0791C138.043 14.8968 138.089 14.7031 138.089 14.498C138.089 14.2884 138.043 14.0902 137.952 13.9033C137.866 13.7165 137.724 13.5638 137.528 13.4453C137.332 13.3268 137.07 13.2676 136.742 13.2676H134.562V11.9551Z" fill="white"/>
</svg>
